<?xml version="1.0" encoding="UTF-8" standalone="no"?>
<svg
   xmlns:dc="http://purl.org/dc/elements/1.1/"
   xmlns:cc="http://creativecommons.org/ns#"
   xmlns:rdf="http://www.w3.org/1999/02/22-rdf-syntax-ns#"
   xmlns:svg="http://www.w3.org/2000/svg"
   xmlns="http://www.w3.org/2000/svg"
   version="1.1"
   id="svg11560"
   viewBox="0 0 120 80"
   height="80"
   width="120">
  <defs
     id="defs11562" />
  <metadata
     id="metadata11565">
    <rdf:RDF>
      <cc:Work
         rdf:about="">
        <dc:format>image/svg+xml</dc:format>
        <dc:type
           rdf:resource="http://purl.org/dc/dcmitype/StillImage" />
        <dc:title></dc:title>
      </cc:Work>
    </rdf:RDF>
  </metadata>
  <g
     style="display:none"
     transform="translate(0,-972.3622)"
     id="layer1">
    <path
       id="path12130"
       d="m 2.0443456,1028.2245 0,19.8285 L 118.98671,1011.8935 93.906797,984.189 Z"
       style="fill:#000000;fill-opacity:1;fill-rule:evenodd;stroke:#000000;stroke-width:2.3095665px;stroke-linecap:butt;stroke-linejoin:miter;stroke-opacity:1" />
  </g>
  <g
     style="display:none"
     id="layer15">
    <path
       id="path12154"
       d="m 5.4319761,67.427181 c 0,0 36.0714279,-35.714286 64.9999999,-34.285715 28.928571,1.428572 41.428574,19.285715 41.428574,19.285715"
       style="fill:none;fill-rule:evenodd;stroke:#000000;stroke-width:9.60000038;stroke-linecap:round;stroke-linejoin:miter;stroke-miterlimit:4;stroke-dasharray:none;stroke-opacity:1" />
  </g>
  <g
     style="display:none"
     id="layer16">
    <path
       id="path12167"
       d="M 2.53962,47.813892 9.4126255,76.069582 82.724685,52.395897 118.61706,61.559904 78.142679,24.140209 Z"
       style="fill:#000000;fill-opacity:1;fill-rule:evenodd;stroke:#000000;stroke-width:2.13800001;stroke-linecap:butt;stroke-linejoin:round;stroke-miterlimit:4;stroke-dasharray:none;stroke-opacity:1" />
  </g>
  <g
     style="display:none"
     id="layer17">
    <path
       id="path12180"
       d="m 110.34951,44.485767 c 0,0 -18.111351,-18.097408 -30.828567,-17.726427 -30.43331,0.887788 -62.427851,21.194639 -67.82285,26.204282 -5.3950001,5.009641 -12.7167841,13.102143 -8.8632141,16.955713 3.853571,3.85357 8.8632141,2.312143 13.8728571,-1.541429 5.009641,-3.85357 34.296781,-38.150352 60.501063,-35.067496 26.204281,3.082858 33.140711,11.175357 33.140711,11.175357 z"
       style="fill:#000000;fill-opacity:1;fill-rule:evenodd;stroke:#000000;stroke-width:2.15799975px;stroke-linecap:butt;stroke-linejoin:miter;stroke-opacity:1" />
  </g>
  <g
     style="display:none"
     id="layer18">
    <path
       id="path12193"
       d="m 2.3214174,65.733251 7.1116201,12.968247 c 0,0 33.8847745,-42.669718 64.0045755,-40.159734 30.119807,2.509983 35.558097,12.131586 35.558097,12.131586 l 7.11163,-23.844842 c 0,0 -15.47824,-7.529951 -34.303116,-7.529951 -18.824875,0 -39.741403,9.203273 -48.944676,15.478231 C 23.656275,41.051747 2.3214174,65.733251 2.3214174,65.733251 Z"
       style="fill:#000000;fill-opacity:1;fill-rule:evenodd;stroke:#000000;stroke-width:1.17132556px;stroke-linecap:butt;stroke-linejoin:miter;stroke-opacity:1" />
  </g>
  <g
     style="display:none"
     id="layer19">
    <path
       id="path12206"
       d="m 1.5939928,61.819085 5.5945305,9.663279 c 0,0 50.8593647,-27.97265 71.7117047,-26.446871 20.852338,1.525782 32.041402,10.171875 32.041402,10.171875 l 4.57735,-3.560156 c 0,0 -22.378131,-9.663281 -35.601565,-10.680468 C 66.69398,39.949558 51.944764,41.983931 45.84164,44.018307 39.738516,46.052682 1.5939928,61.819085 1.5939928,61.819085 Z"
       style="fill:#000000;fill-opacity:1;fill-rule:evenodd;stroke:#000000;stroke-width:1.42406225px;stroke-linecap:butt;stroke-linejoin:miter;stroke-opacity:1" />
  </g>
  <g
     style="display:none"
     id="layer20">
    <path
       id="path12219"
       d="m 5.1418008,66.764847 c 0,0 15.7329392,-23.185384 38.9183262,-21.529287 23.185387,1.6561 38.09028,23.185387 38.09028,23.185387"
       style="fill:none;fill-rule:evenodd;stroke:#000000;stroke-width:10.20157051;stroke-linecap:round;stroke-linejoin:miter;stroke-miterlimit:4;stroke-dasharray:none;stroke-opacity:1" />
  </g>
  <g
     style="display:inline"
     id="layer21">
    <path
       id="path12232"
       d="M 2.4400209,55.557967 3.950146,78.209844 71.150688,38.191546 108.9038,57.0681 111.16899,52.53772 71.150688,17.804859 Z"
       style="fill:#000000;fill-opacity:1;fill-rule:evenodd;stroke:#000000;stroke-width:2.11417437px;stroke-linecap:butt;stroke-linejoin:miter;stroke-opacity:1" />
  </g>
  <g
     style="display:none"
     id="layer22">
    <path
       id="path12245"
       d="m 1.9037096,34.791773 0,12.330018 c 0,0 26.2012944,-1.155939 37.7606864,0.385314 11.559394,1.541253 40.072565,17.33909 45.081637,21.577535 5.009069,4.238445 10.788767,2.697192 13.100645,1.541253 C 100.15856,69.469952 102.85575,62.91963 95.149486,56.369307 87.443225,49.818983 53.150355,37.10365 47.370659,35.947711 41.590964,34.791773 1.9037096,34.791773 1.9037096,34.791773 Z"
       style="fill:#000000;fill-opacity:1;fill-rule:evenodd;stroke:#000000;stroke-width:2.15775347px;stroke-linecap:butt;stroke-linejoin:miter;stroke-opacity:1" />
  </g>
  <g
     style="display:none"
     id="layer23">
    <path
       id="path12219-4"
       d="m 9.0702518,64.163822 c 0,0 15.7329412,-23.185388 38.9183282,-21.529291 23.185387,1.6561 38.090283,23.185391 38.090283,23.185391"
       style="display:inline;fill:none;fill-rule:evenodd;stroke:#000000;stroke-width:16.50200081;stroke-linecap:round;stroke-linejoin:miter;stroke-miterlimit:4;stroke-dasharray:none;stroke-opacity:1" />
  </g>
  <g
     style="display:none"
     id="layer24">
    <path
       id="path12273"
       d="M 2.1554761,52.327656 19.000448,71.86783 52.016596,47.611064 89.075536,73.215417 99.856315,53.001455 49.995199,17.963913 Z"
       style="fill:#000000;fill-opacity:1;fill-rule:evenodd;stroke:#000000;stroke-width:1.88663697px;stroke-linecap:butt;stroke-linejoin:miter;stroke-opacity:1" />
  </g>
  <g
     style="display:none"
     id="layer25">
    <path
       id="path12286"
       d="M 17.967439,29.46157 2.5306428,72.522108 107.33836,40.836058 117.08792,27.024183 Z"
       style="fill:#000000;fill-opacity:1;fill-rule:evenodd;stroke:#000000;stroke-width:2.27489614px;stroke-linecap:butt;stroke-linejoin:miter;stroke-opacity:1" />
  </g>
</svg>
